<svg width="25" height="24" viewBox="0 0 25 24" fill="none" xmlns="http://www.w3.org/2000/svg">
<path fill-rule="evenodd" clip-rule="evenodd" d="M9.23167 5.77133L6.16953 9.91436C4.8848 11.6526 4.24244 12.5217 4.59639 13.205C4.60225 13.2164 4.60829 13.2276 4.6145 13.2387C4.98945 13.9117 6.09888 13.9117 8.31775 13.9117C9.55079 13.9117 10.1673 13.9117 10.554 14.2754L10.574 14.2946L14.446 9.72466L14.426 9.70541C14.0474 9.33386 14.0474 8.74151 14.0474 7.55682V7.24712C14.0474 3.96249 14.0474 2.32018 13.1241 2.03721C12.2007 1.75425 11.211 3.09327 9.23167 5.77133Z" fill="white" fill-opacity="0.2"/>
<path opacity="0.5" d="M10.9527 16.4432L10.9527 16.7528C10.9527 20.0374 10.9527 21.6798 11.876 21.9627C12.7994 22.2457 13.7891 20.9067 15.7685 18.2286L18.8306 14.0856C20.1154 12.3474 20.7577 11.4783 20.4038 10.7949C20.3979 10.7836 20.3919 10.7724 20.3857 10.7613C20.0107 10.0883 18.9013 10.0883 16.6824 10.0883C15.4494 10.0883 14.8329 10.0883 14.4462 9.72461L10.5742 14.2946C10.9528 14.6661 10.9527 15.2585 10.9527 16.4432Z" fill="white" fill-opacity="0.2"/>
</svg>
