<svg width="24" height="25" viewBox="0 0 24 25" fill="none" xmlns="http://www.w3.org/2000/svg">
<g clip-path="url(#clip0_269_1494)">
<path d="M7.60205 9.89437V15.5758C7.60205 16.3133 8.2038 16.9111 8.93689 16.9111C9.09834 16.9111 9.25587 16.8849 9.39987 16.8282V20.8995C9.39987 21.7373 10.0802 22.418 10.918 22.418C11.3417 22.418 11.7257 22.2435 12.0006 21.9642C12.2755 22.2435 12.6591 22.418 13.0823 22.418C13.9202 22.418 14.6013 21.7373 14.6013 20.8995V16.8282C14.7453 16.8849 14.8976 16.9111 15.0591 16.9111C15.797 16.9111 16.3943 16.3133 16.3943 15.5758V9.89437C16.3943 8.26673 15.0726 6.94019 13.4402 6.94019H10.5558C8.9286 6.94019 7.60205 8.26673 7.60205 9.89437Z" fill="#FFEEB1"/>
<path d="M22.3854 16.1737V11.0159C22.3854 9.51918 21.1636 8.29736 19.6625 8.29736H17.5422C17.3192 8.29736 17.1359 8.45882 17.1098 8.677L17.098 8.77038C17.2075 9.12602 17.2673 9.50347 17.2673 9.89445V15.5759C17.2673 16.4587 16.7423 17.2153 15.9914 17.5683L15.9626 17.8014C15.9578 17.8232 15.9578 17.8406 15.9578 17.8581V20.9999C15.9578 21.781 16.5953 22.4181 17.3759 22.4181C17.7556 22.4181 18.1003 22.2654 18.3578 22.021C18.6109 22.2654 18.9556 22.4181 19.3396 22.4181C20.1207 22.4181 20.7534 21.781 20.7534 20.9999V17.365C20.8756 17.4043 21.0021 17.4217 21.133 17.4217C21.8225 17.4217 22.3854 16.8632 22.3854 16.1737Z" fill="#FFEEB1" fill-opacity="0.4"/>
<path d="M1.6145 11.0159V16.1737C1.6145 16.8632 2.17741 17.4217 2.86643 17.4217C2.99777 17.4217 3.12432 17.4043 3.24214 17.365V20.9999C3.24214 21.781 3.87923 22.4181 4.66032 22.4181C5.03996 22.4181 5.38905 22.2654 5.64214 22.0214C5.89523 22.2654 6.24432 22.4181 6.62396 22.4181C7.40505 22.4181 8.04214 21.781 8.04214 20.9999V17.8581C8.04214 17.8406 8.04214 17.8232 8.03778 17.8057L8.0081 17.5705C7.25537 17.2184 6.72868 16.4604 6.72868 15.5759V9.89445C6.72868 9.49955 6.7889 9.1186 6.90061 8.75947L6.89014 8.677C6.86396 8.45882 6.67632 8.29736 6.45814 8.29736H4.33305C2.83632 8.29736 1.6145 9.51918 1.6145 11.0159Z" fill="#FFEEB1" fill-opacity="0.4"/>
<path d="M3.0415 5.10317C3.0415 6.53444 4.21096 7.69953 5.64223 7.69953C7.07787 7.69953 8.24296 6.53444 8.24296 5.10317C8.24296 3.66753 7.07787 2.50244 5.64223 2.50244C4.21096 2.50244 3.0415 3.66753 3.0415 5.10317Z" fill="#FFEEB1" fill-opacity="0.4"/>
<path d="M9.17676 3.41876C9.17676 4.97658 10.4422 6.24204 12 6.24204C13.5535 6.24204 14.8189 4.97658 14.8189 3.41876C14.8189 1.86531 13.5535 0.599854 12 0.599854C10.4422 0.599854 9.17676 1.86531 9.17676 3.41876Z" fill="#FFEEB1"/>
<path d="M18.3578 2.50244C16.9226 2.50244 15.7571 3.66753 15.7571 5.10317C15.7571 6.53444 16.9226 7.69953 18.3578 7.69953C19.7891 7.69953 20.9542 6.53444 20.9542 5.10317C20.9542 3.66753 19.7891 2.50244 18.3578 2.50244Z" fill="#FFEEB1" fill-opacity="0.4"/>
</g>
<defs>
<clipPath id="clip0_269_1494">
<rect width="24" height="24" fill="white" transform="translate(0 0.599976)"/>
</clipPath>
</defs>
</svg>
