<svg width="25" height="24" viewBox="0 0 25 24" fill="none" xmlns="http://www.w3.org/2000/svg">
<path d="M20.6451 12.6473L21.1627 10.7154C21.767 8.46034 22.0691 7.3328 21.8416 6.35703C21.662 5.58657 21.2579 4.88668 20.6805 4.34587C19.9492 3.66095 18.8216 3.35883 16.5666 2.75458C14.3115 2.15033 13.1839 1.84821 12.2082 2.07573C11.4377 2.25537 10.7378 2.65945 10.197 3.23687C9.61059 3.86298 9.30478 4.77957 8.84971 6.44561C8.77328 6.7254 8.69265 7.02633 8.60577 7.35057L8.60571 7.35077L8.08808 9.28263C7.48383 11.5377 7.18171 12.6652 7.40922 13.641C7.58887 14.4115 7.99295 15.1114 8.57036 15.6522C9.30165 16.3371 10.4292 16.6392 12.6843 17.2435L12.6843 17.2435C14.7169 17.7881 15.8334 18.0873 16.7485 17.9744C16.8486 17.9621 16.9464 17.9448 17.0427 17.9223C17.8131 17.7427 18.513 17.3386 19.0538 16.7612C19.7387 16.0299 20.0409 14.9024 20.6451 12.6473Z" fill="#FFEEB1"/>
<path opacity="0.5" d="M16.7484 17.9744C16.5399 18.6128 16.1733 19.1903 15.6805 19.6519C14.9492 20.3368 13.8216 20.6389 11.5666 21.2432C9.31148 21.8474 8.18393 22.1495 7.20816 21.922C6.4377 21.7424 5.73782 21.3383 5.19701 20.7609C4.51209 20.0296 4.20996 18.9021 3.60571 16.647L3.08808 14.7151C2.48383 12.46 2.18171 11.3325 2.40922 10.3567C2.58887 9.58627 2.99295 8.88638 3.57036 8.34557C4.30165 7.66065 5.42919 7.35853 7.68427 6.75428C8.11089 6.63997 8.49718 6.53646 8.84971 6.44531C8.84968 6.44542 8.84973 6.44521 8.84971 6.44531C8.77328 6.7251 8.69259 7.02654 8.60571 7.35077L8.08808 9.28263C7.48383 11.5377 7.18171 12.6652 7.40922 13.641C7.58887 14.4115 7.99295 15.1114 8.57036 15.6522C9.30165 16.3371 10.4292 16.6392 12.6843 17.2435C14.7168 17.7881 15.8333 18.0873 16.7484 17.9744Z" fill="#FFEEB1"/>
</svg>
