<svg width="21" height="20" viewBox="0 0 21 20" fill="none" xmlns="http://www.w3.org/2000/svg">
<path fill-rule="evenodd" clip-rule="evenodd" d="M17.8764 6.66961C17.8292 6.66663 17.7778 6.66665 17.7245 6.66667L17.7111 6.66667H15.6207C13.8977 6.66667 12.4233 8.02297 12.4233 9.79167C12.4233 11.5604 13.8977 12.9167 15.6207 12.9167H17.7111L17.7244 12.9167C17.7778 12.9167 17.8292 12.9167 17.8764 12.9137C18.5763 12.8695 19.1952 12.3218 19.2473 11.5568C19.2507 11.5067 19.2507 11.4526 19.2506 11.4025L19.2506 11.3889V8.19445L19.2506 8.18085C19.2507 8.13073 19.2507 8.07666 19.2473 8.0265C19.1952 7.2615 18.5763 6.71381 17.8764 6.66961ZM15.4354 10.625C15.879 10.625 16.2386 10.2519 16.2386 9.79167C16.2386 9.33143 15.879 8.95833 15.4354 8.95833C14.9918 8.95833 14.6322 9.33143 14.6322 9.79167C14.6322 10.2519 14.9918 10.625 15.4354 10.625Z" fill="#02B1AA"/>
<path fill-rule="evenodd" clip-rule="evenodd" d="M17.7239 14.1667C17.8482 14.1635 17.9422 14.2785 17.9085 14.3982C17.7412 14.9919 17.4757 15.4979 17.0496 15.924C16.426 16.5476 15.6352 16.8244 14.6582 16.9557C13.7088 17.0834 12.4958 17.0833 10.9643 17.0833H9.20364C7.67217 17.0833 6.45915 17.0834 5.5098 16.9557C4.53278 16.8244 3.74199 16.5476 3.11835 15.924C2.49472 15.3003 2.21795 14.5095 2.0866 13.5325C1.95896 12.5832 1.95897 11.3701 1.95898 9.83868V9.74465C1.95897 8.21319 1.95896 7.00016 2.0866 6.05082C2.21795 5.0738 2.49472 4.28301 3.11835 3.65937C3.74199 3.03573 4.53278 2.75897 5.5098 2.62761C6.45914 2.49998 7.67217 2.49999 9.20364 2.5L10.9643 2.5C12.4958 2.49999 13.7088 2.49998 14.6582 2.62761C15.6352 2.75897 16.426 3.03573 17.0496 3.65937C17.4757 4.08544 17.7412 4.59145 17.9085 5.18515C17.9422 5.3048 17.8482 5.41989 17.7239 5.41667L15.6207 5.41667C13.2568 5.41667 11.1733 7.28409 11.1733 9.79167C11.1733 12.2993 13.2568 14.1667 15.6207 14.1667L17.7239 14.1667ZM6.12565 12.9167C5.78047 12.9167 5.50065 12.6368 5.50065 12.2917V7.29167C5.50065 6.94649 5.78047 6.66667 6.12565 6.66667C6.47083 6.66667 6.75065 6.94649 6.75065 7.29167V12.2917C6.75065 12.6368 6.47083 12.9167 6.12565 12.9167Z" fill="#02B1AA"/>
</svg>
