<svg width="25" height="24" viewBox="0 0 25 24" fill="none" xmlns="http://www.w3.org/2000/svg">
<path opacity="0.5" d="M11.1669 6.13443L10.665 5.77922C9.94862 5.27225 9.09264 5 8.21504 5H7.60257C7.19838 5 6.79009 5.02549 6.40915 5.16059C4.02645 6.00566 2.38749 9.09504 2.50604 16.1026C2.52992 17.5145 2.8603 19.075 4.13423 19.6842C4.53121 19.8741 4.99667 20 5.52671 20C6.16273 20 6.6678 19.8187 7.05763 19.5632C7.46641 19.2953 7.82633 18.9471 8.18612 18.599L8.18612 18.599C8.63071 18.1688 9.07511 17.7389 9.61125 17.4609C10.1952 17.1581 10.8434 17 11.5011 17H13.4989C14.1566 17 14.8048 17.1581 15.3888 17.4609C15.9249 17.7389 16.3693 18.1688 16.8139 18.599L16.8139 18.599C17.1737 18.9471 17.5336 19.2953 17.9424 19.5632C18.3322 19.8187 18.8373 20 19.4733 20C20.0033 20 20.4688 19.8741 20.8658 19.6842C22.1397 19.075 22.4701 17.5145 22.494 16.1026C22.6125 9.09503 20.9735 6.00566 18.5908 5.16059C18.2099 5.02549 17.8016 5 17.3974 5H16.7849C15.9074 5 15.0514 5.27225 14.3351 5.77922L13.8332 6.13441C13.4434 6.41029 12.9776 6.55844 12.5 6.55844C12.0225 6.55844 11.5567 6.41029 11.1669 6.13443Z" fill="#FFEEB1"/>
<path d="M17.25 9C17.6642 9 18 9.33579 18 9.75C18 10.1642 17.6642 10.5 17.25 10.5C16.8358 10.5 16.5 10.1642 16.5 9.75C16.5 9.33579 16.8358 9 17.25 9Z" fill="#FFEEB1"/>
<path d="M8 9.25C8.41421 9.25 8.75 9.58579 8.75 10V10.75H9.5C9.91421 10.75 10.25 11.0858 10.25 11.5C10.25 11.9142 9.91421 12.25 9.5 12.25H8.75V13C8.75 13.4142 8.41421 13.75 8 13.75C7.58579 13.75 7.25 13.4142 7.25 13V12.25H6.5C6.08579 12.25 5.75 11.9142 5.75 11.5C5.75 11.0858 6.08579 10.75 6.5 10.75H7.25V10C7.25 9.58579 7.58579 9.25 8 9.25Z" fill="#FFEEB1"/>
<path d="M19.5 11.25C19.5 11.6642 19.1642 12 18.75 12C18.3358 12 18 11.6642 18 11.25C18 10.8358 18.3358 10.5 18.75 10.5C19.1642 10.5 19.5 10.8358 19.5 11.25Z" fill="#FFEEB1"/>
<path d="M15.75 12C16.1642 12 16.5 11.6642 16.5 11.25C16.5 10.8358 16.1642 10.5 15.75 10.5C15.3358 10.5 15 10.8358 15 11.25C15 11.6642 15.3358 12 15.75 12Z" fill="#FFEEB1"/>
<path d="M18 12.75C18 12.3358 17.6642 12 17.25 12C16.8358 12 16.5 12.3358 16.5 12.75C16.5 13.1642 16.8358 13.5 17.25 13.5C17.6642 13.5 18 13.1642 18 12.75Z" fill="#FFEEB1"/>
</svg>
