<svg width="25" height="24" viewBox="0 0 25 24" fill="none" xmlns="http://www.w3.org/2000/svg">
<path d="M20.6449 12.6473L21.1625 10.7154C21.7668 8.46034 22.0689 7.3328 21.8414 6.35703C21.6617 5.58657 21.2576 4.88668 20.6802 4.34587C19.9489 3.66095 18.8214 3.35883 16.5663 2.75458C14.3112 2.15033 13.1837 1.84821 12.2079 2.07573C11.4375 2.25537 10.7376 2.65945 10.1968 3.23687C9.61034 3.86298 9.30453 4.77957 8.84946 6.44561C8.77304 6.7254 8.6924 7.02633 8.60553 7.35057L8.60547 7.35077L8.08783 9.28263C7.48358 11.5377 7.18146 12.6652 7.40898 13.641C7.58863 14.4115 7.9927 15.1114 8.57012 15.6522C9.3014 16.3371 10.4289 16.6392 12.684 17.2435L12.684 17.2435C14.7166 17.7881 15.8332 18.0873 16.7482 17.9744C16.8484 17.9621 16.9462 17.9448 17.0424 17.9223C17.8129 17.7427 18.5128 17.3386 19.0536 16.7612C19.7385 16.0299 20.0406 14.9024 20.6449 12.6473Z" fill="white" fill-opacity="0.2"/>
<path opacity="0.5" d="M16.7481 17.9745C16.5396 18.6128 16.1731 19.1903 15.6802 19.6519C14.9489 20.3368 13.8214 20.6389 11.5663 21.2432C9.31123 21.8474 8.18369 22.1496 7.20792 21.922C6.43746 21.7424 5.73757 21.3383 5.19676 20.7609C4.51184 20.0296 4.20972 18.9021 3.60547 16.647L3.08783 14.7152C2.48358 12.4601 2.18146 11.3325 2.40898 10.3568C2.58863 9.5863 2.9927 8.88641 3.57012 8.3456C4.3014 7.66068 5.42894 7.35856 7.68403 6.75431C8.11065 6.64 8.49694 6.53649 8.84946 6.44534C8.84943 6.44545 8.84949 6.44524 8.84946 6.44534C8.77304 6.72513 8.69235 7.02657 8.60547 7.35081L8.08783 9.28266C7.48358 11.5377 7.18146 12.6653 7.40898 13.6411C7.58863 14.4115 7.9927 15.1114 8.57012 15.6522C9.3014 16.3371 10.4289 16.6393 12.684 17.2435C14.7165 17.7881 15.8331 18.0873 16.7481 17.9745Z" fill="white" fill-opacity="0.2"/>
</svg>
