<svg width="24" height="20" viewBox="0 0 24 20" fill="none" xmlns="http://www.w3.org/2000/svg">
<path fill-rule="evenodd" clip-rule="evenodd" d="M1.64988 8.61754L14.5378 3.06618C20.675 0.513487 21.9503 0.0700843 22.7815 0.0554545C22.9643 0.052228 23.3731 0.0975312 23.6378 0.312381C23.8615 0.493773 23.9229 0.738899 23.9524 0.910832C23.9819 1.08277 24.0185 1.47468 23.9893 1.78084C23.6567 5.27519 22.2177 13.7553 21.4856 17.6691C21.1757 19.3253 20.5662 19.8805 19.9753 19.9348C18.6919 20.0529 17.7174 19.0867 16.4744 18.2719L11.5425 14.9591C9.36061 13.5213 10.7751 12.731 12.0185 11.4395C12.3439 11.1014 17.9984 5.95828 18.1078 5.49172C18.1211 5.43338 18.1342 5.21592 18.005 5.10101C17.8758 4.98609 17.685 5.02587 17.5474 5.05667C17.3524 5.10096 14.2451 7.1547 8.22581 11.218C7.34382 11.8236 6.54493 12.1187 5.82922 12.1033C5.04014 12.0862 3.52231 11.6571 2.39396 11.2903C1.00997 10.8405 -0.0900039 10.6026 0.00581896 9.83858C0.0556751 9.44066 0.603695 9.03372 1.64983 8.61763L1.64988 8.61754Z" fill="white" fill-opacity="0.3"/>
</svg>
